<svg width="401" height="36" viewBox="0 0 401 36" fill="none" xmlns="http://www.w3.org/2000/svg">
<path d="M0.752 1.4H7.472V35H0.752V1.4ZM9.68 18.824V17.576L34.496 1.4H42.92V2.336L18.656 17.984L43.736 34.064V35H34.616L9.68 18.824ZM109.294 35L88.9179 7.616L68.6139 35H61.4379V34.064L85.5339 1.4H92.3979L116.518 34.064V35H109.294ZM169.003 1.4C175.219 1.4 178.123 4.304 178.123 10.52V12.128C178.123 18.344 175.219 21.248 169.003 21.248H162.811L179.179 34.064V35H171.067L149.491 18.2V15.152H167.587C170.851 15.152 171.403 14.6 171.403 11.336V11.312C171.403 8.048 170.851 7.472 167.587 7.472H133.963V1.4H169.003ZM256.55 1.4V35H249.83V8.96L230.174 24.344H228.542L200.078 2.336V1.4H209.15L229.382 17.024L249.614 1.4H256.55ZM326.185 35L305.809 7.616L285.505 35H278.329V34.064L302.425 1.4H309.289L333.409 34.064V35H326.185ZM397.126 35.48L361.894 10.736V35H355.174V0.919998H358.534L393.766 25.472V1.4H400.486V35.48H397.126Z" fill="url(#paint0_linear_3_2)"/>
<defs>
<linearGradient id="paint0_linear_3_2" x1="-13" y1="15.5" x2="415" y2="15.5" gradientUnits="userSpaceOnUse">
<stop stop-color="#BCD0C7"/>
<stop offset="0.502478" stop-color="#547AA5"/>
<stop offset="1" stop-color="#504C78"/>
</linearGradient>
</defs>
</svg>
